<svg xmlns="http://www.w3.org/2000/svg" width="33" height="28" viewBox="0 0 33 28"><g transform="translate(-395.712 -609.354)"><g transform="translate(395.712 609.354)"><path d="M717.935,703.7c1.786.222,1.785.222,1.787,1.922,0,.843.01,1.686.007,2.528a.926.926,0,0,1-1.052,1.058q-8.4-.013-16.81-.008a1.019,1.019,0,0,1-1.132-1.135q-.03-1.668-.007-3.337c.016-1.177,1-.836,1.767-1.014-.472-1.07-.91-2.116-1.4-3.136-.1-.2-.434-.28-.612-.462-.149-.151-.339-.392-.306-.553s.286-.349.482-.435a1.577,1.577,0,0,1,.6-.038q8.965,0,17.931,0c.237,0,.589-.067.686.055a1.63,1.63,0,0,1,.287.831C718.644,700.782,718.8,702.5,717.935,703.7Zm.341,4.068V705.2h-2.541l2.113-4.677H702.637l2.106,4.721h-2.526v2.52Z" transform="translate(-693.608 -681.207)" fill="#fff"/><path d="M691.494,628.15l-4.042,10.158-7.323-5.765-.176.111,1.784,3.715.482-.991.236.176-.969,2.928-4.595-9.517.2-.2,9.808,7.719,4.594-11.537,4.6,11.534,9.92-7.81.162.124-4.665,9.68-1.021-3.045.853.734,1.687-3.484-.142-.152-7.343,5.775Z" transform="translate(-675 -621.842)" fill="#fff"/><path d="M710.293,647.028c-.854-.328-1.045-.777-.761-1.539.407-1.095.7-2.23,1.12-3.58,1.028,1.5,1.989,2.825,2.843,4.214.171.277-.063.8-.362,1.292L711.1,644.59Z" transform="translate(-700.995 -635.427)" fill="#fff"/><path d="M771.686,644.574l-1.991,2.88a1.17,1.17,0,0,1-.159-1.76c.863-1.151,1.647-2.361,2.6-3.745.458,1.506.905,2.79,1.206,4.107.067.294-.381.7-.591,1.058l-.271-.091Z" transform="translate(-748.8 -635.459)" fill="#fff"/><path d="M743.195,676.542c.728.921.865.7-1.814,2.867-2.015-1.254-2.442-1.852-1.919-2.893l1.894,1.582Z" transform="translate(-724.857 -663.144)" fill="#fff"/><path d="M747.078,610.574c-.409.244-.836.7-1.22.67-.346-.029-.942-.649-.895-.915a1.437,1.437,0,0,1,.964-.972c.355-.041.775.477,1.167.749Z" transform="translate(-729.415 -609.355)" fill="#fff"/><path d="M781.613,627.069c-.4.263-.834.776-1.183.723a1.459,1.459,0,0,1-.945-1c-.043-.261.573-.867.923-.891.383-.026.8.441,1.2.693Q781.611,626.83,781.613,627.069Z" transform="translate(-757.013 -622.602)" fill="#fff"/><path d="M823.1,629.733c-.277-.388-.771-.777-.767-1.161a1.4,1.4,0,0,1,.887-.969.805.805,0,0,1,1.044.893c-.045.426-.449.815-.692,1.221Z" transform="translate(-791.27 -623.941)" fill="#fff"/><path d="M668.228,629.942c-.279-.388-.809-.806-.768-1.158a1.452,1.452,0,0,1,.993-.949c.26-.049.887.544.913.882.03.386-.426.808-.671,1.214Z" transform="translate(-667.458 -624.153)" fill="#fff"/><path d="M712.465,627.064c-.4.265-.832.782-1.177.729a1.484,1.484,0,0,1-.959-1c-.047-.251.574-.863.929-.89.382-.029.8.435,1.205.683Z" transform="translate(-701.728 -622.602)" fill="#fff"/><path d="M727.628,732.241c-.4.25-.851.747-1.2.684a1.451,1.451,0,0,1-.9-1.03c-.037-.252.6-.836.938-.844.385-.01.782.461,1.174.723Q727.636,732.008,727.628,732.241Z" transform="translate(-713.883 -706.819)" fill="#fff"/><path d="M746.069,733.171c-.269-.39-.748-.782-.744-1.17,0-.332.595-.951.861-.918a1.421,1.421,0,0,1,1.028.884c.054.355-.447.793-.7,1.194Z" transform="translate(-729.707 -706.843)" fill="#fff"/><path d="M765.177,733.151c-.25-.4-.708-.813-.688-1.2.018-.331.635-.923.9-.879a1.415,1.415,0,0,1,.981.928c.04.355-.474.771-.744,1.161Z" transform="translate(-745.027 -706.834)" fill="#fff"/></g></g></svg>